# xmcd
#
# Track frame offsets:
#	150
#	15600
#	25627
#	37100
#	48017
#	59645
#	77320
#	86475
#	99272
#	111680
#	121297
#	141990
#
# Disc length: 2293 seconds
#
# Revision: 1
# Processed by: cddbd v1.5.1PL2 Copyright (c) Steve Scherf et al.
# Submitted via: audiograbber 1.83.01
#
DISCID=9508f30c
DTITLE=JOÃO MOSSORÓ - O MITO E A ARTE DE LUIZ GONZAGA
DYEAR=1900
DGENRE=
TTITLE0=QUI NEM GILÓ-ASSUM PRETO
TTITLE1=RIACHO DO NAVIO-NO MEU PÉ DE SERRA
TTITLE2=SABIÁ-XOTE DAS MENINAS
TTITLE3=FORRÓ EM CARUARU-XAMEGO
TTITLE4=ABC DO SERTÃO-FORRÓ NO ESCURO
TTITLE5=ASA BRANCA
TTITLE6=BAIÃO
TTITLE7=RESPEITA JANUÁRIO-A VIDA DE VIAJANTE
TTITLE8=PAU DE ARARA-BAIÃO DA GAROA
TTITLE9=VOZES DA SECA
TTITLE10=POLCA FOGUETEIRA-SÃO JOÃO NA ROÇA-NOITES BRASILEIRAS-OLHA PRO CÉU
TTITLE11=A TRISTE PARTIDA
EXTD=
EXTT0=
EXTT1=
EXTT2=
EXTT3=
EXTT4=
EXTT5=
EXTT6=
EXTT7=
EXTT8=
EXTT9=
EXTT10=
EXTT11=
PLAYORDER=
